<svg id="Capa_1" data-name="Capa 1" xmlns="http://www.w3.org/2000/svg" viewBox="0 0 366.948 55.983">
  <defs>
    <style>
      .cls-1 {
        fill: #fff;
      }

      .cls-2 {
        fill: #d20c13;
      }
    </style>
  </defs>
  <title>Logos-GE</title>
  <g>
    <path class="cls-1" d="M212.848,55.839h11.787a1.328,1.328,0,0,1,1.49,1.513c0,.948-.5,1.419-1.49,1.419H212.848V70.513c0,.484.209.721.632.721h12.69c1.011,0,1.514.475,1.514,1.418a1.349,1.349,0,0,1-1.514,1.54H213.057a3.278,3.278,0,0,1-2.365-.818,3.066,3.066,0,0,1-.847-2.326V45.382a3.976,3.976,0,0,1,.829-2.617,3.243,3.243,0,0,1,2.667-1.018h12.829a1.481,1.481,0,1,1,0,2.961h-12.5a.752.752,0,0,0-.585.257.931.931,0,0,0-.232.649Z" transform="translate(-14.951 -29.622)"/>
    <path class="cls-1" d="M246.254,59.681a7.557,7.557,0,0,0-1.959-5.393,6.8,6.8,0,0,0-10.352.652,11.533,11.533,0,0,0-2.106,7.234q0,4.657,1.988,7.173a6.649,6.649,0,0,0,5.508,2.518,6.441,6.441,0,0,0,4.962-2.131,7.691,7.691,0,0,0,1.959-5.415Zm2.956,13.181a1.291,1.291,0,0,1-1.447,1.473,1.319,1.319,0,0,1-1.509-1.473V71a7.308,7.308,0,0,1-2.911,2.687,8.6,8.6,0,0,1-4.01.967,9.467,9.467,0,0,1-7.709-3.31q-2.744-3.3-2.748-9.173a14.258,14.258,0,0,1,2.856-9.271,9.3,9.3,0,0,1,7.6-3.519,8.433,8.433,0,0,1,4.022.968,7.523,7.523,0,0,1,2.9,2.763V42.775q0-1.422,1.509-1.424a1.269,1.269,0,0,1,1.447,1.424Z" transform="translate(-14.951 -29.622)"/>
    <path class="cls-1" d="M271.855,72.862a1.311,1.311,0,0,1-1.49,1.473,1.3,1.3,0,0,1-1.464-1.473V70.324a8.738,8.738,0,0,1-3.228,3.249,9.227,9.227,0,0,1-4.554,1.085A7.757,7.757,0,0,1,255,72.235a9.577,9.577,0,0,1-2.152-6.589V51.2a1.3,1.3,0,0,1,1.445-1.489,1.325,1.325,0,0,1,1.511,1.489V65.459a6.912,6.912,0,0,0,1.5,4.658,5.292,5.292,0,0,0,4.231,1.749,6.74,6.74,0,0,0,5.391-2.3A9.012,9.012,0,0,0,268.9,63.5V51.2a1.3,1.3,0,0,1,1.464-1.489,1.317,1.317,0,0,1,1.49,1.489Z" transform="translate(-14.951 -29.622)"/>
    <path class="cls-1" d="M293.59,53.252a1.46,1.46,0,0,1-.421,1.027,1.336,1.336,0,0,1-1,.444,2.737,2.737,0,0,1-1.312-.653,9.646,9.646,0,0,0-2.744-1.492,8.621,8.621,0,0,0-2.54-.374,7.133,7.133,0,0,0-5.766,2.656,10.912,10.912,0,0,0-2.2,7.173,11.146,11.146,0,0,0,2.135,7.175,6.921,6.921,0,0,0,5.692,2.658,8.879,8.879,0,0,0,5.494-2.007,2.709,2.709,0,0,1,1.328-.675,1.2,1.2,0,0,1,.99.487,1.651,1.651,0,0,1,.388,1.026c0,.744-.865,1.593-2.585,2.541a11.659,11.659,0,0,1-5.707,1.419,9.681,9.681,0,0,1-7.76-3.458,13.714,13.714,0,0,1-2.934-9.167,13.245,13.245,0,0,1,3.107-9.171,10.146,10.146,0,0,1,7.911-3.477,10.767,10.767,0,0,1,5.6,1.377q2.325,1.378,2.321,2.489" transform="translate(-14.951 -29.622)"/>
    <path class="cls-1" d="M312.156,59.681a7.573,7.573,0,0,0-1.957-5.393,6.525,6.525,0,0,0-4.962-2.085,6.411,6.411,0,0,0-5.522,2.772,11.771,11.771,0,0,0-1.977,7.012,12.278,12.278,0,0,0,1.888,7.233,7.141,7.141,0,0,0,10.593.558,7.566,7.566,0,0,0,1.938-5.37Zm2.955,13.181a1.478,1.478,0,0,1-2.955,0v-2.3a8.176,8.176,0,0,1-3.051,3.075,9.556,9.556,0,0,1-11.673-2.447c-1.771-2.31-2.654-5.383-2.654-9.2a14.417,14.417,0,0,1,2.712-9.116,9.133,9.133,0,0,1,7.648-3.486,8.458,8.458,0,0,1,4.105.948,7.815,7.815,0,0,1,2.912,2.825v-2a1.478,1.478,0,0,1,2.955,0Z" transform="translate(-14.951 -29.622)"/>
    <path class="cls-1" d="M323.807,52.578V67.763a5.486,5.486,0,0,0,.7,3.075,2.384,2.384,0,0,0,2.119,1.029,3.8,3.8,0,0,0,.954-.107,9.52,9.52,0,0,0,1.327-.55,1.424,1.424,0,0,1,.535-.118,1.083,1.083,0,0,1,.831.421,1.438,1.438,0,0,1,.359.955c0,.561-.417,1.065-1.233,1.511a5.85,5.85,0,0,1-2.868.679c-2.013,0-3.469-.551-4.353-1.651A7.9,7.9,0,0,1,320.853,68V52.578H318.18q-1.477,0-1.475-1.329,0-1.37,1.475-1.37h2.673V44.284a1.478,1.478,0,0,1,2.954,0v5.595h4.059q1.463,0,1.464,1.37,0,1.327-1.464,1.329Z" transform="translate(-14.951 -29.622)"/>
    <path class="cls-1" d="M335.828,72.862c0,.979-.513,1.473-1.54,1.473-.944,0-1.414-.493-1.414-1.473V51.156a1.281,1.281,0,0,1,1.462-1.44,1.3,1.3,0,0,1,1.492,1.44Zm-1.492-29.014a1.859,1.859,0,0,1-1.423-.606,2.02,2.02,0,0,1-.556-1.405,1.964,1.964,0,0,1,.58-1.409,1.9,1.9,0,0,1,1.4-.593,1.987,1.987,0,0,1,1.411.572,1.919,1.919,0,0,1,.591,1.43,1.929,1.929,0,0,1-2,2.012" transform="translate(-14.951 -29.622)"/>
    <path class="cls-1" d="M349.27,52.2a7.075,7.075,0,0,0-5.474,2.45q-2.218,2.44-2.215,7.379,0,4.89,2.315,7.365a7.117,7.117,0,0,0,10.777,0Q357,66.918,357,62.033q0-4.843-2.179-7.334a7.05,7.05,0,0,0-5.554-2.5m0,22.454a9.711,9.711,0,0,1-7.664-3.407q-2.985-3.416-2.986-9.218,0-6.032,2.986-9.336a10.531,10.531,0,0,1,15.374.043q2.975,3.352,2.979,9.293c0,3.856-1,6.916-2.994,9.2a9.744,9.744,0,0,1-7.7,3.424" transform="translate(-14.951 -29.622)"/>
    <path class="cls-1" d="M381.9,72.862a1.292,1.292,0,0,1-1.445,1.473,1.32,1.32,0,0,1-1.513-1.473V58.845a7.326,7.326,0,0,0-1.47-4.937,5.375,5.375,0,0,0-4.3-1.7,6.714,6.714,0,0,0-5.256,2.285,8.977,8.977,0,0,0-2.035,6.2V72.862a1.48,1.48,0,0,1-2.96,0V51.2a1.48,1.48,0,1,1,2.96,0v2.516a8.187,8.187,0,0,1,3.157-3.168,8.918,8.918,0,0,1,4.5-1.167,8.05,8.05,0,0,1,6.219,2.321,8.952,8.952,0,0,1,2.144,6.32Z" transform="translate(-14.951 -29.622)"/>
    <path class="cls-1" d="M112,68.3a4.632,4.632,0,0,1-1.024,3.1,9.578,9.578,0,0,1-3.83,2.307,18.347,18.347,0,0,1-6.643,1.088,13.784,13.784,0,0,1-10.782-4.45Q85.709,65.892,85.7,58.3q0-7.783,4.29-12.392a14.286,14.286,0,0,1,10.93-4.6,17.633,17.633,0,0,1,6.021.863,12.786,12.786,0,0,1,3.433,1.73,2.386,2.386,0,0,1,1.087,1.842,3.03,3.03,0,0,1-.7,1.9,2.017,2.017,0,0,1-1.594.885,3.791,3.791,0,0,1-1.732-.514,14.035,14.035,0,0,0-6.352-1.726,9.137,9.137,0,0,0-7.233,3.178q-2.767,3.177-2.77,8.744,0,5.539,2.652,8.576a9.373,9.373,0,0,0,7.44,3.037,11.023,11.023,0,0,0,3.178-.449,4.927,4.927,0,0,0,1.886-.837,1.594,1.594,0,0,0,.383-1.149V61.217h-5.35a2.069,2.069,0,0,1-2.4-2.549,2.515,2.515,0,0,1,.58-1.87,2.713,2.713,0,0,1,1.917-.559h7.991c1.764,0,2.64.811,2.64,2.43Z" transform="translate(-14.951 -29.622)"/>
    <path class="cls-1" d="M120.822,72.5q0,2.2-2.685,2.2-2.6,0-2.6-2.2V43.426a1.957,1.957,0,0,1,.607-1.613,3.285,3.285,0,0,1,2.036-.489,3.18,3.18,0,0,1,2.018.5,1.935,1.935,0,0,1,.62,1.6Z" transform="translate(-14.951 -29.622)"/>
    <path class="cls-1" d="M135.313,54.227a5.181,5.181,0,0,0-4.477,2.152,9.522,9.522,0,0,0-1.556,5.7,9.644,9.644,0,0,0,1.583,5.725,5.131,5.131,0,0,0,4.449,2.219,5.271,5.271,0,0,0,4.536-2.1,9.711,9.711,0,0,0,1.546-5.841c0-2.619-.515-4.585-1.527-5.893a5.4,5.4,0,0,0-4.555-1.96m0,20.566a10.363,10.363,0,0,1-8.286-3.541,13.555,13.555,0,0,1-3.052-9.172,13.452,13.452,0,0,1,3.041-9.163,10.445,10.445,0,0,1,8.3-3.481,10.556,10.556,0,0,1,8.364,3.458,13.41,13.41,0,0,1,3.044,9.186,13.5,13.5,0,0,1-3.062,9.209,10.515,10.515,0,0,1-8.346,3.5" transform="translate(-14.951 -29.622)"/>
    <path class="cls-1" d="M155.135,64.09a6.429,6.429,0,0,0,1.412,4.216,4.7,4.7,0,0,0,3.844,1.719,4.873,4.873,0,0,0,4.183-2.111,9.831,9.831,0,0,0,1.518-5.832,9.719,9.719,0,0,0-1.494-5.735,4.852,4.852,0,0,0-4.206-2.118,4.778,4.778,0,0,0-3.818,1.671,6.283,6.283,0,0,0-1.438,4.266Zm0,7.31v1.247c0,1.365-.914,2.055-2.738,2.055a2.876,2.876,0,0,1-2-.529,2.215,2.215,0,0,1-.549-1.67V43.516a2.115,2.115,0,0,1,.595-1.667,3.006,3.006,0,0,1,2-.526,3.19,3.19,0,0,1,2.067.526,2.062,2.062,0,0,1,.622,1.667v9.077a7.024,7.024,0,0,1,6.076-3.157,9.023,9.023,0,0,1,7.42,3.458q2.769,3.46,2.771,9.186,0,5.842-2.664,9.277a8.512,8.512,0,0,1-7.062,3.435q-4.538,0-6.541-3.394" transform="translate(-14.951 -29.622)"/>
    <path class="cls-1" d="M190.054,60.164a6.309,6.309,0,0,0-1.436-4.255,4.772,4.772,0,0,0-3.82-1.682,4.858,4.858,0,0,0-4.206,2.125,9.783,9.783,0,0,0-1.493,5.728,9.812,9.812,0,0,0,1.518,5.854,4.877,4.877,0,0,0,4.182,2.09,4.717,4.717,0,0,0,3.84-1.705,6.4,6.4,0,0,0,1.417-4.23Zm0,11.1q-1.912,3.536-6.562,3.532a8.479,8.479,0,0,1-7.036-3.435q-2.663-3.435-2.664-9.277,0-5.749,2.767-9.2a9.025,9.025,0,0,1,7.419-3.445,6.782,6.782,0,0,1,6.077,3.156v-.867q0-2.193,2.687-2.2a2.977,2.977,0,0,1,1.969.525,2.1,2.1,0,0,1,.607,1.67V72.5a2.209,2.209,0,0,1-.564,1.685,3.185,3.185,0,0,1-2.1.514c-1.731,0-2.6-.688-2.6-2.054Z" transform="translate(-14.951 -29.622)"/>
    <path class="cls-1" d="M204.179,72.5q0,2.2-2.689,2.2-2.591,0-2.59-2.2V43.426a1.95,1.95,0,0,1,.6-1.613,3.281,3.281,0,0,1,2.033-.489,3.192,3.192,0,0,1,2.023.5,1.946,1.946,0,0,1,.618,1.6Z" transform="translate(-14.951 -29.622)"/>
    <path class="cls-1" d="M31.165,34.012a1.047,1.047,0,0,1,.679-1.316,38.573,38.573,0,0,1,10.8-1.577,1.047,1.047,0,0,1,0,2.094,37.671,37.671,0,0,0-9.382,1.254c-.516.142-.779.224-.779.224a1.049,1.049,0,0,1-1.32-.679" transform="translate(-14.951 -29.622)"/>
    <path class="cls-1" d="M21.436,41.142a1.05,1.05,0,0,1,.816-1.24A116.923,116.923,0,0,1,42.64,37.591a1.049,1.049,0,1,1,0,2.1,96.78,96.78,0,0,0-13.4,1.133c-3.862.565-6.549,1.128-6.556,1.133a1.23,1.23,0,0,1-.216.019,1.05,1.05,0,0,1-1.031-.831" transform="translate(-14.951 -29.622)"/>
    <path class="cls-1" d="M17.03,48.129a1.051,1.051,0,0,1,.882-1.2A189.343,189.343,0,0,1,42.64,44.994a1.05,1.05,0,1,1,0,2.1c-5.909,0-12.022.481-16.651.961s-7.759.953-7.765.953a1.07,1.07,0,0,1-.158.012,1.053,1.053,0,0,1-1.036-.891" transform="translate(-14.951 -29.622)"/>
    <path class="cls-1" d="M14.956,55.1a1.039,1.039,0,0,1,.955-1.126c.021,0,11.919-.961,26.729-.961a1.048,1.048,0,1,1,0,2.1c-7.364,0-14,.241-18.809.478s-7.743.477-7.75.477H16a1.045,1.045,0,0,1-1.045-.966" transform="translate(-14.951 -29.622)"/>
    <path class="cls-1" d="M31.843,84.034a1.05,1.05,0,1,1,.643-2s.263.085.778.224,1.259.321,2.186.508a36.93,36.93,0,0,0,7.19.745h0a1.046,1.046,0,1,1,0,2.093,39.143,39.143,0,0,1-10.8-1.57" transform="translate(-14.951 -29.622)"/>
    <path class="cls-1" d="M22.214,76.813a1.047,1.047,0,1,1,.506-2.032s.556.133,1.582.345,2.51.493,4.336.78a92.633,92.633,0,0,0,14.009,1.13,1.051,1.051,0,0,1,0,2.1,95.117,95.117,0,0,1-20.433-2.325" transform="translate(-14.951 -29.622)"/>
    <path class="cls-1" d="M17.89,69.785a1.047,1.047,0,1,1,.35-2.064c.01,0,2.822.472,7.3.952a163.367,163.367,0,0,0,17.1.959,1.049,1.049,0,1,1,0,2.1A166.7,166.7,0,0,1,17.89,69.785" transform="translate(-14.951 -29.622)"/>
    <path class="cls-1" d="M15.908,62.756a1.05,1.05,0,0,1,.174-2.092c.015,0,2.851.237,7.6.474s11.4.478,18.96.478a1.05,1.05,0,1,1,0,2.1c-15.219,0-26.71-.96-26.732-.96" transform="translate(-14.951 -29.622)"/>
    <path class="cls-1" d="M52.8,34.689s-.27-.08-.775-.223-1.262-.321-2.187-.508a36.849,36.849,0,0,0-7.189-.747,1.046,1.046,0,1,1,0-2.093,38.581,38.581,0,0,1,10.8,1.578,1.047,1.047,0,0,1-.331,2.044,1.028,1.028,0,0,1-.318-.051" transform="translate(-14.951 -29.622)"/>
    <path class="cls-1" d="M62.6,41.955c-.006,0-2.7-.568-6.557-1.13a96.127,96.127,0,0,0-13.4-1.136,1.049,1.049,0,1,1,0-2.1A116.527,116.527,0,0,1,63.028,39.9h0a1.046,1.046,0,0,1-.207,2.071,1.323,1.323,0,0,1-.225-.019" transform="translate(-14.951 -29.622)"/>
    <path class="cls-1" d="M67.06,49.008c-.01,0-3.132-.477-7.765-.959s-10.742-.955-16.65-.955a1.05,1.05,0,1,1,0-2.1,189.612,189.612,0,0,1,24.731,1.941,1.044,1.044,0,0,1,.879,1.193,1.051,1.051,0,0,1-1.2.879" transform="translate(-14.951 -29.622)"/>
    <path class="cls-1" d="M69.2,56.064c-.008,0-2.948-.242-7.745-.476s-11.446-.479-18.813-.479a1.049,1.049,0,0,1,0-2.1c14.814,0,26.714.963,26.728.963a1.047,1.047,0,0,1-.08,2.092Z" transform="translate(-14.951 -29.622)"/>
    <path class="cls-1" d="M41.593,84.558a1.047,1.047,0,0,1,1.048-1.047,37.555,37.555,0,0,0,9.381-1.254c.507-.139.775-.224.775-.224h0a1.051,1.051,0,1,1,.649,2A39.086,39.086,0,0,1,42.64,85.6a1.048,1.048,0,0,1-1.048-1.046" transform="translate(-14.951 -29.622)"/>
    <path class="cls-1" d="M41.593,78.089a1.049,1.049,0,0,1,1.048-1.052,95.647,95.647,0,0,0,18.345-1.905c1.028-.218,1.58-.35,1.58-.35a1.046,1.046,0,1,1,.5,2.031A95.021,95.021,0,0,1,42.64,79.139a1.053,1.053,0,0,1-1.048-1.051" transform="translate(-14.951 -29.622)"/>
    <path class="cls-1" d="M41.593,70.679a1.045,1.045,0,0,1,1.048-1.047,163.384,163.384,0,0,0,17.108-.959c4.475-.48,7.287-.952,7.292-.952a1.047,1.047,0,1,1,.35,2.064A166.12,166.12,0,0,1,42.64,71.73a1.052,1.052,0,0,1-1.048-1.052" transform="translate(-14.951 -29.622)"/>
    <path class="cls-1" d="M41.593,62.662a1.045,1.045,0,0,1,1.048-1.046c7.564,0,14.211-.238,18.965-.478s7.583-.474,7.594-.474a1.049,1.049,0,1,1,.169,2.092c-.014,0-11.506.96-26.728.96a1.054,1.054,0,0,1-1.048-1.054" transform="translate(-14.951 -29.622)"/>
    <path class="cls-2" d="M29.41,65.878a2.593,2.593,0,0,1,.9-3.22,56.472,56.472,0,0,1,5.137-3.628,1.3,1.3,0,0,1,1.973.371c.5,1.095,1.85,4.813,3.072,8.4.358,1.069,1.158,1.023,1.669,0,7.015-14.058,14.988-27.011,22.145-34.7,1.215-1.315,1.669-1.7,2.775-1.987,1.086-.285,3.667-.986,6.349-1.466,1.114-.192,1.813.758,1.065,1.66-7.3,8.99-20.512,31.8-28.59,48.459a2.5,2.5,0,0,1-2.652,1.61c-1.421,0-6.205-.41-6.205-.41a2.223,2.223,0,0,1-2.256-1.374c-1.867-4.207-5.383-13.714-5.383-13.714" transform="translate(-14.951 -29.622)"/>
  </g>
</svg>
